<?xml version="1.0" encoding="UTF-8" standalone="no"?>
<svg
   xmlns:dc="http://purl.org/dc/elements/1.1/"
   xmlns:cc="http://creativecommons.org/ns#"
   xmlns:rdf="http://www.w3.org/1999/02/22-rdf-syntax-ns#"
   xmlns:svg="http://www.w3.org/2000/svg"
   xmlns="http://www.w3.org/2000/svg"
   xmlns:sodipodi="http://sodipodi.sourceforge.net/DTD/sodipodi-0.dtd"
   xmlns:inkscape="http://www.inkscape.org/namespaces/inkscape"
   sodipodi:docname="Contextual Fear.svg"
   inkscape:version="1.0 (4035a4fb49, 2020-05-01)"
   inkscape:export-ydpi="300"
   inkscape:export-xdpi="300"
   inkscape:export-filename="C:\Users\rory\Pictures\contextual_fear.png"
   id="svg8"
   version="1.1"
   viewBox="0 0 210 297"
   height="297mm"
   width="210mm">
  <defs
     id="defs2">
    <filter
       height="1.0001108"
       y="-5.5377724e-05"
       width="1.0000988"
       x="-4.9390944e-05"
       id="filter1335"
       style="color-interpolation-filters:sRGB"
       inkscape:collect="always">
      <feGaussianBlur
         id="feGaussianBlur1337"
         stdDeviation="0.00086342279"
         inkscape:collect="always" />
    </filter>
    <filter
       height="1.0001108"
       y="-5.5377724e-05"
       width="1.0000988"
       x="-4.9390944e-05"
       id="filter1339"
       style="color-interpolation-filters:sRGB"
       inkscape:collect="always">
      <feGaussianBlur
         id="feGaussianBlur1341"
         stdDeviation="0.00086342279"
         inkscape:collect="always" />
    </filter>
    <filter
       height="1.000408"
       y="-0.00020399351"
       width="1.0007105"
       x="-0.0003552326"
       id="filter1343"
       style="color-interpolation-filters:sRGB"
       inkscape:collect="always">
      <feGaussianBlur
         id="feGaussianBlur1345"
         stdDeviation="0.035273877"
         inkscape:collect="always" />
    </filter>
    <filter
       height="1.0003069"
       y="-0.00015345937"
       width="1.0002559"
       x="-0.00012794895"
       id="filter1347"
       style="color-interpolation-filters:sRGB"
       inkscape:collect="always">
      <feGaussianBlur
         id="feGaussianBlur1349"
         stdDeviation="0.029020147"
         inkscape:collect="always" />
    </filter>
    <filter
       height="1.0003084"
       y="-0.00015421196"
       width="1.0003192"
       x="-0.00015957883"
       id="filter1351"
       style="color-interpolation-filters:sRGB"
       inkscape:collect="always">
      <feGaussianBlur
         id="feGaussianBlur1353"
         stdDeviation="0.0011324619"
         inkscape:collect="always" />
    </filter>
    <filter
       height="1.0003069"
       y="-0.00015345937"
       width="1.0002559"
       x="-0.00012794895"
       id="filter1355"
       style="color-interpolation-filters:sRGB"
       inkscape:collect="always">
      <feGaussianBlur
         id="feGaussianBlur1357"
         stdDeviation="0.029020147"
         inkscape:collect="always" />
    </filter>
    <filter
       height="1.0003084"
       y="-0.00015421196"
       width="1.0003192"
       x="-0.00015957883"
       id="filter1359"
       style="color-interpolation-filters:sRGB"
       inkscape:collect="always">
      <feGaussianBlur
         id="feGaussianBlur1361"
         stdDeviation="0.0019180798"
         inkscape:collect="always" />
    </filter>
    <filter
       height="1.0006954"
       y="-0.00034771581"
       width="1.0006317"
       x="-0.00031586859"
       id="filter1363"
       style="color-interpolation-filters:sRGB"
       inkscape:collect="always">
      <feGaussianBlur
         id="feGaussianBlur1365"
         stdDeviation="0.00086342279"
         inkscape:collect="always" />
    </filter>
    <filter
       height="1.0009919"
       y="-0.00049595769"
       width="1.0001712"
       x="-8.5605355e-05"
       id="filter1367"
       style="color-interpolation-filters:sRGB"
       inkscape:collect="always">
      <feGaussianBlur
         id="feGaussianBlur1369"
         stdDeviation="0.00086342279"
         inkscape:collect="always" />
    </filter>
    <filter
       height="1.0009919"
       y="-0.00049595769"
       width="1.0001712"
       x="-8.5605358e-05"
       id="filter1371"
       style="color-interpolation-filters:sRGB"
       inkscape:collect="always">
      <feGaussianBlur
         id="feGaussianBlur1373"
         stdDeviation="0.00086342279"
         inkscape:collect="always" />
    </filter>
  </defs>
  <sodipodi:namedview
     inkscape:window-maximized="0"
     inkscape:window-y="-8"
     inkscape:window-x="-8"
     inkscape:window-height="1017"
     inkscape:window-width="960"
     inkscape:snap-global="false"
     showgrid="false"
     inkscape:document-rotation="0"
     inkscape:current-layer="layer1"
     inkscape:document-units="mm"
     inkscape:cy="362.32473"
     inkscape:cx="380.1918"
     inkscape:zoom="0.81589404"
     inkscape:pageshadow="2"
     inkscape:pageopacity="0.0"
     borderopacity="1.0"
     bordercolor="#666666"
     pagecolor="#ffffff"
     id="base" />
  <metadata
     id="metadata5">
    <rdf:RDF>
      <cc:Work
         rdf:about="">
        <dc:format>image/svg+xml</dc:format>
        <dc:type
           rdf:resource="http://purl.org/dc/dcmitype/StillImage" />
        <dc:title></dc:title>
      </cc:Work>
    </rdf:RDF>
  </metadata>
  <g
     id="layer1"
     inkscape:groupmode="layer"
     inkscape:label="Layer 1">
    <rect
       y="64.255951"
       x="29.860117"
       height="37.419643"
       width="41.955357"
       id="rect10"
       style="fill:#ff5555;stroke:#000000;stroke-width:1.4;stroke-linejoin:round;stroke-miterlimit:10;paint-order:stroke markers fill;stroke-dasharray:none;filter:url(#filter1335)" />
    <rect
       style="fill:#aaffaa;stroke:#000000;stroke-width:1.4;stroke-linejoin:round;stroke-miterlimit:10;paint-order:stroke markers fill;stroke-dasharray:none;filter:url(#filter1339)"
       id="rect14"
       width="41.955357"
       height="37.419643"
       x="80.886902"
       y="64.255951" />
    <g
       transform="matrix(0.02078879,0,0,0.02078879,57.262795,50.294472)"
       id="g85"
       style="fill:#ffcc00;fill-opacity:1;stroke:none">
</g>
    <g
       transform="matrix(0.02078879,0,0,0.02078879,57.262795,50.294472)"
       id="g87"
       style="fill:#ffcc00;fill-opacity:1;stroke:none">
</g>
    <g
       transform="matrix(0.02078879,0,0,0.02078879,57.262795,50.294472)"
       id="g89"
       style="fill:#ffcc00;fill-opacity:1;stroke:none">
</g>
    <g
       transform="matrix(0.02078879,0,0,0.02078879,57.262795,50.294472)"
       id="g91"
       style="fill:#ffcc00;fill-opacity:1;stroke:none">
</g>
    <g
       transform="matrix(0.02078879,0,0,0.02078879,57.262795,50.294472)"
       id="g93"
       style="fill:#ffcc00;fill-opacity:1;stroke:none">
</g>
    <g
       transform="matrix(0.02078879,0,0,0.02078879,57.262795,50.294472)"
       id="g95"
       style="fill:#ffcc00;fill-opacity:1;stroke:none">
</g>
    <g
       transform="matrix(0.02078879,0,0,0.02078879,57.262795,50.294472)"
       id="g97"
       style="fill:#ffcc00;fill-opacity:1;stroke:none">
</g>
    <g
       transform="matrix(0.02078879,0,0,0.02078879,57.262795,50.294472)"
       id="g99"
       style="fill:#ffcc00;fill-opacity:1;stroke:none">
</g>
    <g
       transform="matrix(0.02078879,0,0,0.02078879,57.262795,50.294472)"
       id="g101"
       style="fill:#ffcc00;fill-opacity:1;stroke:none">
</g>
    <g
       transform="matrix(0.02078879,0,0,0.02078879,57.262795,50.294472)"
       id="g103"
       style="fill:#ffcc00;fill-opacity:1;stroke:none">
</g>
    <g
       transform="matrix(0.02078879,0,0,0.02078879,57.262795,50.294472)"
       id="g105"
       style="fill:#ffcc00;fill-opacity:1;stroke:none">
</g>
    <g
       transform="matrix(0.02078879,0,0,0.02078879,57.262795,50.294472)"
       id="g107"
       style="fill:#ffcc00;fill-opacity:1;stroke:none">
</g>
    <g
       transform="matrix(0.02078879,0,0,0.02078879,57.262795,50.294472)"
       id="g109"
       style="fill:#ffcc00;fill-opacity:1;stroke:none">
</g>
    <g
       transform="matrix(0.02078879,0,0,0.02078879,57.262795,50.294472)"
       id="g111"
       style="fill:#ffcc00;fill-opacity:1;stroke:none">
</g>
    <g
       transform="matrix(0.02078879,0,0,0.02078879,57.262795,50.294472)"
       id="g113"
       style="fill:#ffcc00;fill-opacity:1;stroke:none">
</g>
    <g
       id="g986"
       transform="matrix(0.02709982,0,0,0.02210926,57.906694,65.601378)"
       style="fill:#ffcc00;fill-opacity:1;stroke:none;filter:url(#filter1343)">
      <g
         id="g979">
        <g
           id="g83"
           style="fill:#ffcc00;fill-opacity:1;stroke:none">
	<g
   id="g81"
   style="fill:#ffcc00;fill-opacity:1;stroke:none">
		<path
   id="path79"
   d="M 325.662,3.768 C 324.325,1.437 321.844,0 319.157,0 H 164.555 c -3.218,0 -6.078,2.053 -7.107,5.102 L 91.19,201.421 c -0.772,2.289 -0.394,4.81 1.014,6.772 1.409,1.962 3.677,3.126 6.093,3.126 h 62.812 L 88.817,404.876 c -1.278,3.422 0.096,7.268 3.254,9.106 1.18,0.686 2.48,1.018 3.769,1.018 2.16,0 4.287,-0.932 5.756,-2.687 l 201.228,-240.49 c 1.869,-2.234 2.276,-5.348 1.043,-7.987 -1.232,-2.639 -3.882,-4.326 -6.795,-4.326 H 238.978 L 325.632,11.286 c 1.356,-2.32 1.368,-5.187 0.03,-7.518 z M 219.429,163.223 c -1.356,2.32 -1.368,5.187 -0.03,7.518 1.337,2.331 3.818,3.768 6.505,3.768 h 55.111 L 118.189,369.107 178.943,206.443 c 0.86,-2.302 0.537,-4.88 -0.865,-6.9 -1.401,-2.019 -3.703,-3.224 -6.161,-3.224 H 108.744 L 169.939,15 h 136.145 z"
   style="fill:#ffcc00;fill-opacity:1;stroke:none" />

	</g>

</g>
        <path
           transform="matrix(12.727212,0,0,12.727212,-2751.489,-2434.3797)"
           style="opacity:1;fill:#ffcc00;fill-opacity:1;stroke:none;stroke-width:0.0632995;stroke-linejoin:round;stroke-miterlimit:10;paint-order:stroke markers fill"
           d="m 225.23298,220.54149 c -0.78335,-0.0984 1.18432,-3.49776 2.45089,-6.88893 1.26657,-3.39117 2.62852,-6.28766 2.62852,-6.40044 0,-0.11279 -0.0925,-0.29756 -0.20554,-0.41061 l -0.53122,0.20894 -2.19782,-0.0888 -3.01202,-0.0888 1.40465,-3.90809 c 0.69485,-1.93325 1.91864,-5.01462 2.43779,-7.00201 l 1.04795,-4.01173 6.06344,0.14803 c 2.89436,0.0707 5.14563,0.19974 5.14563,0.22684 0,0.0271 -1.43734,3.01431 -3.30265,6.2041 -2.05788,3.51909 -3.83557,5.73535 -3.83557,5.86463 0,0.11718 0.41248,0.1984 0.50043,0.30713 0.15923,0.19679 0.27888,-0.60414 2.4424,-0.0713 l 2.44527,0.24914 -6.56487,7.69989 c -6.42733,7.53854 -6.70751,7.98836 -6.79885,7.97689 z"
           id="path973"
           sodipodi:nodetypes="sssscccsscsssssscsss" />
      </g>
    </g>
    <g
       style="filter:url(#filter1347)"
       transform="matrix(0.02975253,0,0,0.02975253,32.996112,84.783253)"
       id="g77">
      <g
         id="g20">
	<g
   id="g18">
		<path
   d="m 532.025,368.16 c -3.99,-9.033 -8.147,-18.013 -11.709,-27.218 -4.61,-11.913 -4.386,-11.999 -0.849,-24.725 3.554,-12.771 -0.086,-23.378 -9.964,-29.054 -4.888,-2.807 -6.242,-2.28 -8.71,2.995 -2.424,5.173 -4.896,10.33 -7.598,15.365 -1.313,2.448 -3.187,4.594 -5.813,8.307 -2.75,-5.157 -4.655,-9.318 -7.087,-13.142 -3.293,-5.178 -6.096,-11.224 -10.71,-14.876 -8.278,-6.544 -14.387,-6.52 -20.2,1.926 -3.562,5.174 -6.341,10.947 -8.911,16.699 -0.979,2.195 -1.411,3.681 -4.19,3.922 -11.371,0.971 -22.562,2.505 -33.713,5.593 -5.871,1.628 -13.268,-0.648 -19.58,-2.509 -22.681,-6.679 -45.61,-10.938 -69.241,-7.438 -41.62,6.164 -68.323,30.938 -83.807,68.943 -8.07,19.812 -11.566,40.417 -8.417,61.792 0.657,4.451 2.285,8.76 3.439,13.142 0.404,1.53 0.784,3.064 1.139,4.504 -23.986,5.215 -49.335,7.736 -72.648,-0.775 -22.55,-8.233 -40.588,-26.312 -42.461,-50.983 -2.056,-27.05 16.349,-52.102 33.791,-70.719 19.85,-21.188 42.897,-39.327 58.973,-63.831 31.167,-47.52 35.814,-109.483 6.45,-158.839 -6.259,-10.522 -13.986,-20 -22.803,-28.217 -1.082,-1.717 -2.668,-3.174 -4.598,-4.19 -0.086,-0.045 -0.171,-0.086 -0.253,-0.126 C 155.089,51.572 118.418,40.226 82.146,47.362 50.155,53.654 22.117,72.736 5.54,100.847 c -0.665,1.126 -0.963,2.354 -0.983,3.598 -3.66,4.407 -5.157,10.237 -4.337,16.483 1.379,10.486 10.265,17.422 20.322,18.666 22.2,2.75 32.722,-19.633 46.304,-32.362 28.38,-26.594 69.87,-32.085 104.534,-15.545 9.453,8.454 17.532,18.503 23.664,29.38 12.868,22.819 17.087,48.977 13.859,74.839 -3.431,27.516 -15.594,53.012 -33.341,74.125 -18.728,22.281 -42.404,39.915 -60.14,63.094 -17.042,22.269 -29.062,51.477 -23.101,79.809 5.541,26.336 26.267,45.998 50.408,56.178 27.1,11.428 57.349,9.339 85.717,3.345 l 0.106,1.021 c 1.799,-0.326 4.223,0.151 5.716,1.179 22.456,15.513 47.384,18.744 73.815,15.651 11.48,-1.343 22.436,1.081 32.542,6.956 1.506,0.873 3.357,1.15 5.446,1.836 l 0.71,-5.218 c 2.57,0.53 4.811,0.987 7.748,1.591 -0.004,-1.615 -0.012,-3.104 -0.016,-4.851 1.905,0.036 3.859,0.077 6.25,0.126 -0.849,-1.991 -1.6,-3.754 -2.566,-6.03 1.648,0.347 2.95,0.624 5.777,1.22 -1.804,-2.909 -2.529,-5.422 -4.19,-6.507 -5.145,-3.358 -10.497,-6.496 -16.087,-9.018 -1.938,-0.873 -4.892,-0.045 -7.214,0.612 -4.194,1.184 -8.213,2.995 -12.407,4.187 -1.604,0.457 -3.484,-0.069 -5.431,-0.764 9.719,-6.471 15.582,-17.992 28.862,-19.376 6.765,-0.701 13.297,-3.517 20,-5.083 1.518,-0.355 3.554,0.094 4.933,0.897 2.302,1.338 4.476,3.056 6.341,4.965 13.072,13.366 29.938,20.14 46.536,27.594 4.606,2.068 8.078,6.658 12.306,10.294 0.412,-1.444 0.975,-3.424 1.75,-6.145 3.239,1.354 6.386,2.664 9.56,3.99 2.342,-5.427 -2.893,-8.332 -5.933,-13.261 l 10.987,1.498 c -1.514,-2.559 -2.464,-6.03 -4.716,-7.467 -2.366,-1.514 -5.978,-1.081 -10.551,-1.701 2.696,-1.587 3.994,-2.351 5.532,-3.256 -4.19,-4.374 -9.021,-2.733 -13.154,-1.069 -4.957,2 -8.964,1.285 -12.293,-2.358 -3.753,-4.112 -3.668,-9.229 -2.244,-14.3 1.028,-3.664 3.383,-2.13 5.598,-1.257 5.296,2.085 10.547,4.337 15.978,5.998 2.636,0.808 5.655,0.261 8.458,0.66 2.439,0.348 5.063,0.706 7.156,1.865 3.998,2.211 7.679,4.994 11.489,7.54 0.555,-0.38 1.114,-0.76 1.669,-1.135 -1.191,-3.011 -2.387,-6.021 -3.55,-8.947 4.443,-0.653 8.621,1.485 13.709,7.548 l 0.779,-5.72 c 1.783,0.412 3.439,0.795 5.145,1.191 0.155,-5.749 -5.602,-11.869 -11.04,-11.886 -1.673,-0.004 -3.35,0.372 -5.022,0.376 -14.076,0.036 -20.307,-4.685 -23.664,-18.446 -0.408,-1.664 0.665,-4.259 1.905,-5.675 11.815,-13.493 27.312,-18.205 44.7,-18.561 7.568,-0.154 15.011,-0.628 21.604,4.187 1.105,0.808 2.897,1.016 4.346,0.946 5.871,-0.285 11.75,-0.641 17.597,-1.248 10.09,-1.053 13.146,-5.806 9.363,-15.007 -3.313,-8.088 -7.218,-15.934 -10.756,-23.939 z"
   id="path16" />

	</g>

</g>
      <g
         id="g22">
</g>
      <g
         id="g24">
</g>
      <g
         id="g26">
</g>
      <g
         id="g28">
</g>
      <g
         id="g30">
</g>
      <g
         id="g32">
</g>
      <g
         id="g34">
</g>
      <g
         id="g36">
</g>
      <g
         id="g38">
</g>
      <g
         id="g40">
</g>
      <g
         id="g42">
</g>
      <g
         id="g44">
</g>
      <g
         id="g46">
</g>
      <g
         id="g48">
</g>
      <g
         id="g50">
</g>
    </g>
    <g
       style="filter:url(#filter1351)"
       transform="matrix(0.76242985,0,0,0.76242985,11.642837,23.017722)"
       id="g1133">
      <g
         id="g1098"
         transform="matrix(0.5904144,0,0,0.5904144,20.448878,16.101858)">
        <g
           transform="matrix(-1,0,0,1,124.46409,0)"
           id="g1089">
          <path
             id="path6064"
             d="m 66.735058,127.27185 c -0.01114,1.03687 0.851587,1.88804 1.789059,2.04708 1.001289,0.20525 2.158841,-0.29602 2.570242,-1.31339 0.311467,-0.74914 0.08497,-1.66844 -0.500671,-2.19567 -0.93382,-0.89567 -2.552488,-0.82902 -3.386667,0.1825 -0.293317,0.34494 -0.470984,0.79778 -0.471963,1.26233"
             style="fill:#cccccc;stroke:#cccccc;stroke-width:0.529167;stroke-linecap:round;stroke-linejoin:round"
             inkscape:connector-curvature="0" />
          <path
             id="path6053"
             style="fill:#ffffff;stroke:#000000;stroke-width:0.529167;stroke-linecap:round;stroke-linejoin:round"
             inkscape:connector-curvature="0"
             d="m 66.298495,126.38549 c -0.01114,1.03688 0.851588,1.88805 1.78906,2.04709 1.001289,0.20525 2.158841,-0.29602 2.570241,-1.3134 0.311468,-0.74911 0.08497,-1.66843 -0.500671,-2.19567 -0.93382,-0.89566 -2.552488,-0.82902 -3.386666,0.18251 -0.293317,0.34494 -0.470985,0.79777 -0.471964,1.26233" />
          <path
             id="path6066"
             d="m 71.822995,131.43904 c -0.01326,0.75504 0.617379,1.42848 1.356122,1.52889 0.740807,0.12719 1.556517,-0.29885 1.805649,-1.02148 0.243525,-0.63947 -0.02659,-1.4089 -0.600578,-1.77387 -0.630767,-0.43434 -1.558025,-0.36245 -2.098569,0.18602 -0.287496,0.27699 -0.464264,0.6668 -0.462598,1.06772"
             style="fill:#cccccc;stroke:#cccccc;stroke-width:0.529167;stroke-linecap:round;stroke-linejoin:round"
             inkscape:connector-curvature="0" />
          <path
             id="path6055"
             style="fill:#ffffff;stroke:#000000;stroke-width:0.529167;stroke-linecap:round;stroke-linejoin:round"
             inkscape:connector-curvature="0"
             d="m 71.42612,130.77758 c -0.01326,0.75504 0.617379,1.42848 1.356122,1.52889 0.740807,0.1272 1.556517,-0.29884 1.805649,-1.02147 0.243525,-0.63948 -0.02659,-1.40891 -0.600578,-1.77388 -0.630767,-0.43434 -1.558025,-0.36245 -2.098569,0.18602 -0.287496,0.27699 -0.464264,0.6668 -0.462598,1.06772" />
          <path
             id="path6062"
             d="m 59.406099,104.46212 c 2.133574,0 4.027752,0.94385 5.2324,2.40435 0.794412,-0.7601 1.851687,-1.22314 3.008842,-1.22314 1.838828,0 3.412331,1.16554 4.099454,2.83606 2.701925,0.1626 4.842669,2.25484 4.842669,4.81463 0,1.88682 -1.160225,3.5171 -2.853002,4.31112 0.01767,0.17001 0.02997,0.34094 0.02997,0.51564 0,2.73103 -2.2148,4.94665 -4.944533,4.94665 -0.894821,0 -1.733338,-0.24356 -2.457344,-0.65955 -1.099767,1.53453 -2.964127,2.54225 -5.07656,2.54225 -2.647686,0 -4.901142,-1.58906 -5.753629,-3.80735 -0.559674,0.18029 -1.156018,0.2758 -1.774085,0.2758 -3.249877,0 -5.885656,-2.69161 -5.885656,-6.0079 v -0.048 c 0.02418,-3.00858 2.214192,-5.48402 5.052483,-5.89386 0.565045,-2.85062 3.25173,-5.00645 6.478852,-5.00645 z"
             style="fill:#cccccc;stroke:#cccccc;stroke-width:0.529167;stroke-linecap:round;stroke-linejoin:round"
             inkscape:connector-curvature="0" />
        </g>
        <path
           d="m 59.273808,103.1392 c 2.133573,0 4.027752,0.94385 5.2324,2.40435 0.794411,-0.76009 1.851686,-1.22314 3.008841,-1.22314 1.838828,0 3.412331,1.16554 4.099454,2.83607 2.701925,0.16259 4.842669,2.25483 4.842669,4.81462 0,1.88682 -1.160224,3.51711 -2.853002,4.31112 0.01767,0.17002 0.02997,0.34094 0.02997,0.51565 0,2.73103 -2.214801,4.94665 -4.944534,4.94665 -0.89482,0 -1.733338,-0.24357 -2.457344,-0.65956 -1.099767,1.53454 -2.964127,2.54225 -5.07656,2.54225 -2.647685,0 -4.901142,-1.58906 -5.753629,-3.80735 -0.559673,0.18029 -1.156018,0.2758 -1.774084,0.2758 -3.249877,0 -5.885656,-2.6916 -5.885656,-6.00789 v -0.048 c 0.02418,-3.00858 2.214192,-5.48402 5.052483,-5.89386 0.565044,-2.85062 3.251729,-5.00644 6.478852,-5.00644 z"
           inkscape:connector-curvature="0"
           style="opacity:1;fill:#ffffff;fill-opacity:1;stroke:#000000;stroke-width:0.529167;stroke-linecap:round;stroke-linejoin:round"
           id="path6057" />
      </g>
      <text
         id="text990"
         y="87.21653"
         x="55.670246"
         style="font-size:10.2792px;line-height:1.25;font-family:Arial;-inkscape-font-specification:'Arial, Normal';letter-spacing:0px;fill:#ffcc00;fill-opacity:1;stroke:none;stroke-width:0.55067"
         xml:space="preserve"><tspan
           style="font-size:10.2792px;stroke-width:0.55067"
           y="87.21653"
           x="55.670246"
           id="tspan988"
           sodipodi:role="line">!</tspan></text>
    </g>
    <g
       style="filter:url(#filter1355)"
       id="g1028"
       transform="matrix(0.02975253,0,0,0.02975253,90.900636,83.028571)">
      <g
         transform="translate(-176.92774,54.763346)"
         id="g996">
	<g
   id="g994">
		<path
   id="path992"
   d="m 532.025,368.16 c -3.99,-9.033 -8.147,-18.013 -11.709,-27.218 -4.61,-11.913 -4.386,-11.999 -0.849,-24.725 3.554,-12.771 -0.086,-23.378 -9.964,-29.054 -4.888,-2.807 -6.242,-2.28 -8.71,2.995 -2.424,5.173 -4.896,10.33 -7.598,15.365 -1.313,2.448 -3.187,4.594 -5.813,8.307 -2.75,-5.157 -4.655,-9.318 -7.087,-13.142 -3.293,-5.178 -6.096,-11.224 -10.71,-14.876 -8.278,-6.544 -14.387,-6.52 -20.2,1.926 -3.562,5.174 -6.341,10.947 -8.911,16.699 -0.979,2.195 -1.411,3.681 -4.19,3.922 -11.371,0.971 -22.562,2.505 -33.713,5.593 -5.871,1.628 -13.268,-0.648 -19.58,-2.509 -22.681,-6.679 -45.61,-10.938 -69.241,-7.438 -41.62,6.164 -68.323,30.938 -83.807,68.943 -8.07,19.812 -11.566,40.417 -8.417,61.792 0.657,4.451 2.285,8.76 3.439,13.142 0.404,1.53 0.784,3.064 1.139,4.504 -23.986,5.215 -49.335,7.736 -72.648,-0.775 -22.55,-8.233 -40.588,-26.312 -42.461,-50.983 -2.056,-27.05 16.349,-52.102 33.791,-70.719 19.85,-21.188 42.897,-39.327 58.973,-63.831 31.167,-47.52 35.814,-109.483 6.45,-158.839 -6.259,-10.522 -13.986,-20 -22.803,-28.217 -1.082,-1.717 -2.668,-3.174 -4.598,-4.19 -0.086,-0.045 -0.171,-0.086 -0.253,-0.126 C 155.089,51.572 118.418,40.226 82.146,47.362 50.155,53.654 22.117,72.736 5.54,100.847 c -0.665,1.126 -0.963,2.354 -0.983,3.598 -3.66,4.407 -5.157,10.237 -4.337,16.483 1.379,10.486 10.265,17.422 20.322,18.666 22.2,2.75 32.722,-19.633 46.304,-32.362 28.38,-26.594 69.87,-32.085 104.534,-15.545 9.453,8.454 17.532,18.503 23.664,29.38 12.868,22.819 17.087,48.977 13.859,74.839 -3.431,27.516 -15.594,53.012 -33.341,74.125 -18.728,22.281 -42.404,39.915 -60.14,63.094 -17.042,22.269 -29.062,51.477 -23.101,79.809 5.541,26.336 26.267,45.998 50.408,56.178 27.1,11.428 57.349,9.339 85.717,3.345 l 0.106,1.021 c 1.799,-0.326 4.223,0.151 5.716,1.179 22.456,15.513 47.384,18.744 73.815,15.651 11.48,-1.343 22.436,1.081 32.542,6.956 1.506,0.873 3.357,1.15 5.446,1.836 l 0.71,-5.218 c 2.57,0.53 4.811,0.987 7.748,1.591 -0.004,-1.615 -0.012,-3.104 -0.016,-4.851 1.905,0.036 3.859,0.077 6.25,0.126 -0.849,-1.991 -1.6,-3.754 -2.566,-6.03 1.648,0.347 2.95,0.624 5.777,1.22 -1.804,-2.909 -2.529,-5.422 -4.19,-6.507 -5.145,-3.358 -10.497,-6.496 -16.087,-9.018 -1.938,-0.873 -4.892,-0.045 -7.214,0.612 -4.194,1.184 -8.213,2.995 -12.407,4.187 -1.604,0.457 -3.484,-0.069 -5.431,-0.764 9.719,-6.471 15.582,-17.992 28.862,-19.376 6.765,-0.701 13.297,-3.517 20,-5.083 1.518,-0.355 3.554,0.094 4.933,0.897 2.302,1.338 4.476,3.056 6.341,4.965 13.072,13.366 29.938,20.14 46.536,27.594 4.606,2.068 8.078,6.658 12.306,10.294 0.412,-1.444 0.975,-3.424 1.75,-6.145 3.239,1.354 6.386,2.664 9.56,3.99 2.342,-5.427 -2.893,-8.332 -5.933,-13.261 l 10.987,1.498 c -1.514,-2.559 -2.464,-6.03 -4.716,-7.467 -2.366,-1.514 -5.978,-1.081 -10.551,-1.701 2.696,-1.587 3.994,-2.351 5.532,-3.256 -4.19,-4.374 -9.021,-2.733 -13.154,-1.069 -4.957,2 -8.964,1.285 -12.293,-2.358 -3.753,-4.112 -3.668,-9.229 -2.244,-14.3 1.028,-3.664 3.383,-2.13 5.598,-1.257 5.296,2.085 10.547,4.337 15.978,5.998 2.636,0.808 5.655,0.261 8.458,0.66 2.439,0.348 5.063,0.706 7.156,1.865 3.998,2.211 7.679,4.994 11.489,7.54 0.555,-0.38 1.114,-0.76 1.669,-1.135 -1.191,-3.011 -2.387,-6.021 -3.55,-8.947 4.443,-0.653 8.621,1.485 13.709,7.548 l 0.779,-5.72 c 1.783,0.412 3.439,0.795 5.145,1.191 0.155,-5.749 -5.602,-11.869 -11.04,-11.886 -1.673,-0.004 -3.35,0.372 -5.022,0.376 -14.076,0.036 -20.307,-4.685 -23.664,-18.446 -0.408,-1.664 0.665,-4.259 1.905,-5.675 11.815,-13.493 27.312,-18.205 44.7,-18.561 7.568,-0.154 15.011,-0.628 21.604,4.187 1.105,0.808 2.897,1.016 4.346,0.946 5.871,-0.285 11.75,-0.641 17.597,-1.248 10.09,-1.053 13.146,-5.806 9.363,-15.007 -3.313,-8.088 -7.218,-15.934 -10.756,-23.939 z" />

	</g>

</g>
      <g
         id="g998">
</g>
      <g
         id="g1000">
</g>
      <g
         id="g1002">
</g>
      <g
         id="g1004">
</g>
      <g
         id="g1006">
</g>
      <g
         id="g1008">
</g>
      <g
         id="g1010">
</g>
      <g
         id="g1012">
</g>
      <g
         id="g1014">
</g>
      <g
         id="g1016">
</g>
      <g
         id="g1018">
</g>
      <g
         id="g1020">
</g>
      <g
         id="g1022">
</g>
      <g
         id="g1024">
</g>
      <g
         id="g1026">
</g>
    </g>
    <g
       style="filter:url(#filter1359)"
       id="g1149"
       transform="matrix(0.45014956,0,0,0.45014956,80.124817,35.294259)">
      <g
         transform="matrix(-1,0,0,1,124.46409,0)"
         id="g1145">
        <path
           id="path1135"
           d="m 66.735058,127.27185 c -0.01114,1.03687 0.851587,1.88804 1.789059,2.04708 1.001289,0.20525 2.158841,-0.29602 2.570242,-1.31339 0.311467,-0.74914 0.08497,-1.66844 -0.500671,-2.19567 -0.93382,-0.89567 -2.552488,-0.82902 -3.386667,0.1825 -0.293317,0.34494 -0.470984,0.79778 -0.471963,1.26233"
           style="fill:#cccccc;stroke:#cccccc;stroke-width:0.529167;stroke-linecap:round;stroke-linejoin:round"
           inkscape:connector-curvature="0" />
        <path
           id="path1137"
           style="fill:#ffffff;stroke:#000000;stroke-width:0.529167;stroke-linecap:round;stroke-linejoin:round"
           inkscape:connector-curvature="0"
           d="m 66.298495,126.38549 c -0.01114,1.03688 0.851588,1.88805 1.78906,2.04709 1.001289,0.20525 2.158841,-0.29602 2.570241,-1.3134 0.311468,-0.74911 0.08497,-1.66843 -0.500671,-2.19567 -0.93382,-0.89566 -2.552488,-0.82902 -3.386666,0.18251 -0.293317,0.34494 -0.470985,0.79777 -0.471964,1.26233" />
        <path
           id="path1139"
           d="m 71.822995,131.43904 c -0.01326,0.75504 0.617379,1.42848 1.356122,1.52889 0.740807,0.12719 1.556517,-0.29885 1.805649,-1.02148 0.243525,-0.63947 -0.02659,-1.4089 -0.600578,-1.77387 -0.630767,-0.43434 -1.558025,-0.36245 -2.098569,0.18602 -0.287496,0.27699 -0.464264,0.6668 -0.462598,1.06772"
           style="fill:#cccccc;stroke:#cccccc;stroke-width:0.529167;stroke-linecap:round;stroke-linejoin:round"
           inkscape:connector-curvature="0" />
        <path
           id="path1141"
           style="fill:#ffffff;stroke:#000000;stroke-width:0.529167;stroke-linecap:round;stroke-linejoin:round"
           inkscape:connector-curvature="0"
           d="m 71.42612,130.77758 c -0.01326,0.75504 0.617379,1.42848 1.356122,1.52889 0.740807,0.1272 1.556517,-0.29884 1.805649,-1.02147 0.243525,-0.63948 -0.02659,-1.40891 -0.600578,-1.77388 -0.630767,-0.43434 -1.558025,-0.36245 -2.098569,0.18602 -0.287496,0.27699 -0.464264,0.6668 -0.462598,1.06772" />
        <path
           id="path1143"
           d="m 59.406099,104.46212 c 2.133574,0 4.027752,0.94385 5.2324,2.40435 0.794412,-0.7601 1.851687,-1.22314 3.008842,-1.22314 1.838828,0 3.412331,1.16554 4.099454,2.83606 2.701925,0.1626 4.842669,2.25484 4.842669,4.81463 0,1.88682 -1.160225,3.5171 -2.853002,4.31112 0.01767,0.17001 0.02997,0.34094 0.02997,0.51564 0,2.73103 -2.2148,4.94665 -4.944533,4.94665 -0.894821,0 -1.733338,-0.24356 -2.457344,-0.65955 -1.099767,1.53453 -2.964127,2.54225 -5.07656,2.54225 -2.647686,0 -4.901142,-1.58906 -5.753629,-3.80735 -0.559674,0.18029 -1.156018,0.2758 -1.774085,0.2758 -3.249877,0 -5.885656,-2.69161 -5.885656,-6.0079 v -0.048 c 0.02418,-3.00858 2.214192,-5.48402 5.052483,-5.89386 0.565045,-2.85062 3.25173,-5.00645 6.478852,-5.00645 z"
           style="fill:#cccccc;stroke:#cccccc;stroke-width:0.529167;stroke-linecap:round;stroke-linejoin:round"
           inkscape:connector-curvature="0" />
      </g>
      <path
         d="m 59.273808,103.1392 c 2.133573,0 4.027752,0.94385 5.2324,2.40435 0.794411,-0.76009 1.851686,-1.22314 3.008841,-1.22314 1.838828,0 3.412331,1.16554 4.099454,2.83607 2.701925,0.16259 4.842669,2.25483 4.842669,4.81462 0,1.88682 -1.160224,3.51711 -2.853002,4.31112 0.01767,0.17002 0.02997,0.34094 0.02997,0.51565 0,2.73103 -2.214801,4.94665 -4.944534,4.94665 -0.89482,0 -1.733338,-0.24357 -2.457344,-0.65956 -1.099767,1.53454 -2.964127,2.54225 -5.07656,2.54225 -2.647685,0 -4.901142,-1.58906 -5.753629,-3.80735 -0.559673,0.18029 -1.156018,0.2758 -1.774084,0.2758 -3.249877,0 -5.885656,-2.6916 -5.885656,-6.00789 v -0.048 c 0.02418,-3.00858 2.214192,-5.48402 5.052483,-5.89386 0.565044,-2.85062 3.251729,-5.00644 6.478852,-5.00644 z"
         inkscape:connector-curvature="0"
         style="opacity:1;fill:#ffffff;fill-opacity:1;stroke:#000000;stroke-width:0.529167;stroke-linecap:round;stroke-linejoin:round"
         id="path1147" />
    </g>
    <path
       style="fill:#000000;stroke-width:0.0474957;filter:url(#filter1363)"
       class="st0"
       d="m 111.36188,87.404417 c 0,0 0.0332,-0.057 -0.0617,-0.057 -0.0902,0.0048 -0.30397,0.109245 -0.30397,0.109245 0,0 0.0284,-0.12824 0.0237,-0.147239 -0.01,-0.019 -0.01,-0.270726 -0.019,-0.275477 -0.01,-0.0095 -0.0569,-0.0048 -0.0712,0.04274 0,0 0.01,-0.02376 -0.0237,-0.0475 -0.0332,-0.02376 -0.12349,0.132987 -0.12349,0.132987 0,0 -0.038,0.06649 -0.14724,0.109244 -0.10924,0.038 -0.18048,0.05699 -0.22798,0.10924 0,0 -0.37997,-0.08549 -0.55095,-0.227983 -0.17098,-0.142486 -0.20424,-0.180485 -0.39422,-0.289724 0,0 -0.076,-0.08549 -0.0855,-0.270726 -0.01,-0.185236 -0.038,-0.474961 -0.057,-0.517707 -0.0142,-0.03799 0.01,-0.427463 -0.0712,-0.788434 -0.076,-0.346718 -0.56995,-0.313471 -0.64594,-0.32297 -0.0712,-0.0095 -0.18999,-0.123487 -0.22798,-0.313472 -0.038,-0.189984 0.0238,-0.256477 0.0238,-0.256477 0.0569,-0.0475 0.0855,-0.118741 0.095,-0.194733 v -0.0048 -0.0048 c 0.004,-0.0095 0.0237,-0.03324 0.0475,-0.03324 0.0237,0 0.0569,-0.189984 0.0569,-0.289725 0,-0.09974 -0.038,-0.02848 -0.038,-0.02848 0,0 0.12824,-0.365718 -0.01,-0.446463 0,0 -0.0665,-0.246978 -0.17573,-0.242229 0,0 -0.14724,-0.09499 -0.27548,-0.05699 l -0.01,0.0095 -0.01,-0.0048 c -0.12349,-0.03799 -0.27548,0.05699 -0.27548,0.05699 -0.10448,-0.0095 -0.17573,0.24223 -0.17573,0.24223 -0.13774,0.076 -0.009,0.446463 -0.009,0.446463 0,0 -0.038,-0.076 -0.038,0.02848 -0.004,0.09974 0.0237,0.289729 0.057,0.289729 0.038,0 0.0475,0.038 0.0475,0.038 0,0.0048 0,0.0048 0,0.0095 0.01,0.07124 0.038,0.142487 0.095,0.194733 0,0 0.0617,0.06174 0.0237,0.256478 -0.038,0.189984 -0.15199,0.303971 -0.22798,0.313475 -0.076,0.0095 -0.5747,-0.02376 -0.64595,0.322967 -0.0712,0.318224 -0.0617,0.745687 -0.076,0.783685 -0.0142,0.03799 -0.0427,0.332471 -0.0569,0.517708 -0.01,0.185232 -0.0855,0.270725 -0.0855,0.270725 -0.18999,0.10924 -0.22324,0.142486 -0.39422,0.289725 -0.17098,0.142486 -0.55095,0.227978 -0.55095,0.227978 -0.0522,-0.05699 -0.11874,-0.07124 -0.22798,-0.109239 -0.10925,-0.03799 -0.14723,-0.10924 -0.14723,-0.10924 0,0 -0.0902,-0.156738 -0.1235,-0.132991 -0.0332,0.02376 -0.0237,0.0475 -0.0237,0.0475 -0.0142,-0.0475 -0.0617,-0.057 -0.0712,-0.04274 -0.01,0.0095 -0.01,0.256478 -0.019,0.275474 -0.009,0.019 0.0237,0.147237 0.0237,0.147237 0,0 -0.20899,-0.10924 -0.30397,-0.10924 -0.0902,-0.0048 -0.0617,0.057 -0.0617,0.057 0.095,0.01901 0.14249,0.07599 0.14249,0.07599 -0.0617,0.02848 -0.01,0.07125 -0.01,0.07125 0.20899,0.09024 0.45121,0.09974 0.61745,0.08549 -0.0332,0.04274 -0.0569,0.09499 -0.0712,0.137738 -0.0237,0.08075 -0.019,0.170985 0.0238,0.246978 0.22798,0.413216 0.80269,0.645948 1.06391,0.736188 0.0855,0.02852 0.16624,0.04275 0.25649,0.04275 l 0.21372,0.0048 c -0.16623,0.123487 -0.30397,0.294472 0.25648,0.20898 0.01,0 0.019,-0.0048 0.0285,-0.0095 0.0665,-0.02376 0.35147,-0.14249 0.5082,-0.147238 0.0237,0 0.0427,-0.0095 0.0617,-0.02376 0.0142,-0.0095 0.0332,-0.01424 0.0569,-0.01424 h 0.10924 l 0.46072,-0.0095 c 0.0617,0.01901 0.12349,0.04275 0.17573,0.0665 0.0902,0.03799 0.18524,0.06174 0.28498,0.06174 0.16149,0 0.16623,-0.06174 0.11874,-0.132987 l 0.20424,-0.0048 c 0.0855,0 0.17098,-0.01424 0.25647,-0.04275 0.26123,-0.08549 0.82643,-0.318224 1.05916,-0.726687 0.0427,-0.08074 0.057,-0.175734 0.0237,-0.261227 -0.0142,-0.04275 -0.038,-0.08549 -0.0665,-0.13299 0.17099,0.0095 0.41321,0.0095 0.61745,-0.08549 0,0 0.0569,-0.03799 -0.009,-0.07124 0.0237,-0.0048 0.0665,-0.06174 0.16624,-0.08075 z m -5.95123,0.03324 h -0.0475 c -0.038,0 -0.0665,-0.02376 -0.0712,-0.05699 -0.01,-0.0475 -0.0237,-0.118743 -0.01,-0.199483 0,0 0.0902,0.123491 0.14724,0.180484 l 0.004,0.0048 c 0.0285,0.02377 0.0142,0.07125 -0.0237,0.07125 z m 1.1969,0.213731 c -0.16624,-0.03799 -0.35147,-0.057 -0.51296,-0.08549 0.57471,-0.11874 0.91192,-0.303976 0.99741,-0.365718 0.0712,-0.05225 0.076,-0.118743 0.076,-0.156738 0,-0.02376 0.004,-0.0475 0.01,-0.07125 0.11873,-0.365718 0.11399,-0.897673 0.11399,-0.897673 0,0 0.11873,0.755185 0.1045,0.97367 -0.01,0.132986 -0.14725,0.360965 -0.20424,0.508203 -0.038,0.09974 -0.0617,0.166238 -0.11874,0.180485 -0.0665,0.01424 -0.25173,-0.04275 -0.46547,-0.08549 z m 2.96374,0 c -0.20898,0.04275 -0.38946,0.09974 -0.46071,0.08075 -0.0569,-0.01424 -0.0855,-0.08075 -0.11874,-0.185237 -0.0284,-0.08549 -0.19473,-0.37047 -0.20423,-0.508205 -0.0142,-0.218483 0.10924,-0.973668 0.10924,-0.973668 0,0 -0.004,0.531954 0.11399,0.897676 0.01,0.02376 0.01,0.0475 0.01,0.07124 0,0.03799 0.01,0.104492 0.076,0.156738 0.0855,0.06649 0.4227,0.25173 0.99741,0.365717 -0.16149,0.03799 -0.35147,0.057 -0.52246,0.09499 z m 1.34414,-0.284977 c -0.01,0.03799 -0.038,0.05699 -0.0712,0.05699 h -0.0475 c -0.038,0 -0.0569,-0.04275 -0.0284,-0.07124 l 0.004,-0.0048 c 0.057,-0.057 0.14724,-0.180484 0.14724,-0.180484 0.0142,0.08549 0.004,0.151986 -0.004,0.19948 z"
       id="path1046" />
    <text
       id="text1169"
       y="60.6194"
       x="37.222435"
       style="font-size:5.64444px;line-height:1.25;font-family:Arial;-inkscape-font-specification:'Arial, Normal';letter-spacing:0px;stroke-width:0.264583;filter:url(#filter1367)"
       xml:space="preserve"><tspan
         style="font-size:5.64444px;stroke-width:0.264583"
         y="60.6194"
         x="37.222435"
         id="tspan1167"
         sodipodi:role="line">Context A</tspan></text>
    <text
       xml:space="preserve"
       style="font-size:5.64444px;line-height:1.25;font-family:Arial;-inkscape-font-specification:'Arial, Normal';letter-spacing:0px;stroke-width:0.264583;filter:url(#filter1371)"
       x="87.738602"
       y="60.6194"
       id="text1173"><tspan
         sodipodi:role="line"
         id="tspan1171"
         x="87.738602"
         y="60.6194"
         style="font-size:5.64444px;stroke-width:0.264583">Context B</tspan></text>
  </g>
  <style
     type="text/css"
     id="style1044">
	.st0{fill:#38BFBD;}
</style>
</svg>
